<svg xmlns="http://www.w3.org/2000/svg" xmlns:xlink="http://www.w3.org/1999/xlink" width="400" zoomAndPan="magnify" viewBox="0 0 300 149.999998" height="200" preserveAspectRatio="xMidYMid meet" version="1.0"><defs><g/><clipPath id="b37df1ca05"><path d="M 77.175781 51.640625 L 108.675781 51.640625 L 108.675781 82 L 77.175781 82 Z M 77.175781 51.640625 " clip-rule="nonzero"/></clipPath></defs><rect x="-30" width="360" fill="#ffffff" y="-15" height="179.999997" fill-opacity="1"/><rect x="-30" width="360" fill="#ffffff" y="-15" height="179.999997" fill-opacity="1"/><g fill="#2384eb" fill-opacity="1"><g transform="translate(27.326681, 76.629862)"><g><path d="M 43.15625 -25.765625 L 43.15625 0 L 39.625 0 L 39.625 -21.390625 L 26.234375 -0.078125 L 26.28125 0 L 22.0625 0 L 22.109375 -0.078125 L 8.84375 -21.34375 L 8.84375 0 L 5.328125 0 L 5.328125 -25.765625 L 10.21875 -25.765625 L 24.171875 -3.34375 L 38.25 -25.765625 Z M 43.15625 -25.765625 "/></g></g></g><g fill="#2384eb" fill-opacity="1"><g transform="translate(75.795428, 76.629862)"><g/></g></g><g fill="#2384eb" fill-opacity="1"><g transform="translate(92.96572, 76.629862)"><g/></g></g><g fill="#2384eb" fill-opacity="1"><g transform="translate(110.143083, 76.629862)"><g><path d="M 28.46875 -25.765625 L 28.46875 -22.40625 L 15.9375 -22.40625 L 15.9375 0 L 12.40625 0 L 12.40625 -22.40625 L -0.125 -22.40625 L -0.125 -25.765625 Z M 28.46875 -25.765625 "/></g></g></g><g fill="#2384eb" fill-opacity="1"><g transform="translate(138.431125, 76.629862)"><g><path d="M 20.015625 -25.765625 C 23.617188 -25.765625 26.535156 -25.445312 28.765625 -24.8125 C 31.003906 -24.1875 32.722656 -23.316406 33.921875 -22.203125 C 35.117188 -21.085938 35.929688 -19.789062 36.359375 -18.3125 C 36.796875 -16.84375 37.015625 -15.257812 37.015625 -13.5625 L 37.015625 -11.671875 C 37.015625 -10.015625 36.796875 -8.476562 36.359375 -7.0625 C 35.929688 -5.644531 35.117188 -4.40625 33.921875 -3.34375 C 32.722656 -2.289062 31.003906 -1.46875 28.765625 -0.875 C 26.535156 -0.289062 23.617188 0 20.015625 0 L 5.328125 0 L 5.328125 -25.765625 Z M 33.40625 -11.671875 L 33.40625 -13.5625 C 33.40625 -14.914062 33.234375 -16.128906 32.890625 -17.203125 C 32.546875 -18.273438 31.898438 -19.195312 30.953125 -19.96875 C 30.015625 -20.738281 28.664062 -21.320312 26.90625 -21.71875 C 25.144531 -22.125 22.847656 -22.328125 20.015625 -22.328125 L 8.84375 -22.328125 L 8.84375 -3.4375 L 20.015625 -3.4375 C 22.929688 -3.4375 25.273438 -3.617188 27.046875 -3.984375 C 28.828125 -4.359375 30.171875 -4.90625 31.078125 -5.625 C 31.992188 -6.34375 32.609375 -7.207031 32.921875 -8.21875 C 33.242188 -9.238281 33.40625 -10.390625 33.40625 -11.671875 Z M 33.40625 -11.671875 "/></g></g></g><g fill="#2384eb" fill-opacity="1"><g transform="translate(178.86715, 76.629862)"><g><path d="M 28.515625 0 L 25.84375 -4.859375 L 6.90625 -4.859375 L 4.25 0 L 0.21875 0 L 14.390625 -25.71875 L 14.34375 -25.765625 L 18.421875 -25.765625 L 18.421875 -25.71875 L 32.546875 0 Z M 8.796875 -8.28125 L 23.953125 -8.28125 L 16.40625 -22.0625 Z M 8.796875 -8.28125 "/></g></g></g><g fill="#2384eb" fill-opacity="1"><g transform="translate(211.619463, 76.629862)"><g><path d="M 28.46875 -25.765625 L 28.46875 -22.40625 L 15.9375 -22.40625 L 15.9375 0 L 12.40625 0 L 12.40625 -22.40625 L -0.125 -22.40625 L -0.125 -25.765625 Z M 28.46875 -25.765625 "/></g></g></g><g fill="#2384eb" fill-opacity="1"><g transform="translate(239.907506, 76.629862)"><g><path d="M 28.515625 0 L 25.84375 -4.859375 L 6.90625 -4.859375 L 4.25 0 L 0.21875 0 L 14.390625 -25.71875 L 14.34375 -25.765625 L 18.421875 -25.765625 L 18.421875 -25.71875 L 32.546875 0 Z M 8.796875 -8.28125 L 23.953125 -8.28125 L 16.40625 -22.0625 Z M 8.796875 -8.28125 "/></g></g></g><path fill="#2384eb" d="M 92.953125 65.015625 C 91.507812 65.015625 90.328125 66.191406 90.328125 67.636719 C 90.328125 69.085938 91.507812 70.261719 92.953125 70.261719 C 94.398438 70.261719 95.578125 69.085938 95.578125 67.636719 C 95.578125 66.191406 94.398438 65.015625 92.953125 65.015625 Z M 92.953125 69.175781 C 92.105469 69.175781 91.417969 68.484375 91.417969 67.636719 C 91.417969 66.792969 92.105469 66.101562 92.953125 66.101562 C 93.800781 66.101562 94.488281 66.792969 94.488281 67.636719 C 94.488281 68.484375 93.800781 69.175781 92.953125 69.175781 Z M 92.953125 69.175781 " fill-opacity="1" fill-rule="nonzero"/><g clip-path="url(#b37df1ca05)"><path fill="#2384eb" d="M 106.109375 73.820312 C 105.519531 73.820312 104.980469 74.023438 104.539062 74.351562 L 98.109375 70.136719 C 98.480469 69.378906 98.707031 68.539062 98.707031 67.636719 C 98.707031 65.894531 97.910156 64.347656 96.679688 63.292969 L 101.003906 56.984375 C 101.246094 57.054688 101.496094 57.105469 101.757812 57.105469 C 103.203125 57.105469 104.378906 55.929688 104.378906 54.480469 C 104.378906 53.035156 103.203125 51.859375 101.757812 51.859375 C 100.308594 51.859375 99.132812 53.035156 99.132812 54.484375 C 99.132812 55.273438 99.492188 55.976562 100.046875 56.457031 L 95.792969 62.667969 C 94.953125 62.183594 93.992188 61.886719 92.953125 61.886719 C 91.484375 61.886719 90.152344 62.460938 89.132812 63.371094 L 86.175781 60.289062 C 86.542969 59.835938 86.773438 59.269531 86.773438 58.640625 C 86.773438 57.195312 85.597656 56.015625 84.148438 56.015625 C 82.703125 56.015625 81.527344 57.195312 81.527344 58.640625 C 81.527344 60.089844 82.703125 61.265625 84.152344 61.265625 C 84.578125 61.265625 84.972656 61.152344 85.328125 60.972656 L 88.394531 64.171875 C 87.65625 65.140625 87.203125 66.332031 87.203125 67.636719 C 87.203125 68.539062 87.425781 69.378906 87.796875 70.136719 L 81.714844 74.082031 C 81.234375 73.5625 80.554688 73.234375 79.796875 73.234375 C 78.351562 73.234375 77.171875 74.410156 77.171875 75.859375 C 77.171875 77.304688 78.351562 78.480469 79.796875 78.480469 C 81.242188 78.480469 82.421875 77.304688 82.421875 75.859375 C 82.421875 75.5625 82.359375 75.285156 82.269531 75.019531 L 88.363281 71.066406 C 89.179688 72.15625 90.359375 72.957031 91.738281 73.253906 L 91.566406 76.707031 C 90.269531 76.867188 89.261719 77.960938 89.261719 79.296875 C 89.261719 80.742188 90.4375 81.921875 91.882812 81.921875 C 93.332031 81.921875 94.507812 80.742188 94.507812 79.296875 C 94.507812 78.121094 93.722656 77.132812 92.652344 76.800781 L 92.820312 73.375 C 92.867188 73.378906 92.90625 73.390625 92.953125 73.390625 C 94.835938 73.390625 96.492188 72.46875 97.542969 71.066406 L 103.820312 75.183594 C 103.613281 75.558594 103.484375 75.984375 103.484375 76.441406 C 103.484375 77.886719 104.660156 79.066406 106.105469 79.066406 C 107.554688 79.066406 108.730469 77.886719 108.730469 76.441406 C 108.730469 74.996094 107.554688 73.820312 106.109375 73.820312 Z M 101.757812 52.949219 C 102.601562 52.949219 103.292969 53.636719 103.292969 54.484375 C 103.292969 55.328125 102.601562 56.019531 101.757812 56.019531 C 100.910156 56.019531 100.222656 55.328125 100.222656 54.484375 C 100.222656 53.636719 100.910156 52.949219 101.757812 52.949219 Z M 79.796875 77.394531 C 78.953125 77.394531 78.261719 76.703125 78.261719 75.859375 C 78.261719 75.011719 78.953125 74.324219 79.796875 74.324219 C 80.644531 74.324219 81.332031 75.011719 81.332031 75.859375 C 81.332031 76.703125 80.644531 77.394531 79.796875 77.394531 Z M 93.421875 79.296875 C 93.421875 80.144531 92.730469 80.832031 91.886719 80.832031 C 91.039062 80.832031 90.351562 80.144531 90.351562 79.296875 C 90.351562 78.453125 91.039062 77.761719 91.886719 77.761719 C 92.730469 77.761719 93.421875 78.453125 93.421875 79.296875 Z M 82.617188 58.640625 C 82.617188 57.792969 83.304688 57.105469 84.152344 57.105469 C 84.996094 57.105469 85.6875 57.792969 85.6875 58.640625 C 85.6875 59.488281 84.996094 60.175781 84.152344 60.175781 C 83.304688 60.175781 82.617188 59.488281 82.617188 58.640625 Z M 92.953125 72.300781 C 90.382812 72.300781 88.289062 70.210938 88.289062 67.636719 C 88.289062 65.066406 90.382812 62.972656 92.953125 62.972656 C 95.527344 62.972656 97.617188 65.066406 97.617188 67.636719 C 97.617188 70.210938 95.523438 72.300781 92.953125 72.300781 Z M 106.109375 77.976562 C 105.265625 77.976562 104.574219 77.289062 104.574219 76.441406 C 104.574219 75.59375 105.265625 74.90625 106.109375 74.90625 C 106.957031 74.90625 107.644531 75.59375 107.644531 76.441406 C 107.644531 77.289062 106.957031 77.976562 106.109375 77.976562 Z M 106.109375 77.976562 " fill-opacity="1" fill-rule="nonzero"/></g><g fill="#545454" fill-opacity="1"><g transform="translate(75.01497, 113.379463)"><g><path d="M 5.671875 0.234375 C 4.785156 0.234375 3.976562 0.0078125 3.25 -0.4375 C 2.519531 -0.882812 1.941406 -1.484375 1.515625 -2.234375 C 1.097656 -2.992188 0.890625 -3.8125 0.890625 -4.6875 C 0.890625 -5.5625 1.101562 -6.367188 1.53125 -7.109375 C 1.957031 -7.859375 2.539062 -8.457031 3.28125 -8.90625 C 4.019531 -9.351562 4.828125 -9.578125 5.703125 -9.578125 C 6.460938 -9.578125 7.160156 -9.410156 7.796875 -9.078125 C 8.429688 -8.753906 8.976562 -8.269531 9.4375 -7.625 L 9.4375 -12.921875 L 10.625 -12.921875 L 10.625 0 L 9.4375 0 L 9.4375 -1.59375 C 8.925781 -0.988281 8.351562 -0.53125 7.71875 -0.21875 C 7.09375 0.0820312 6.410156 0.234375 5.671875 0.234375 Z M 5.796875 -0.859375 C 6.441406 -0.859375 7.046875 -1.015625 7.609375 -1.328125 C 8.179688 -1.640625 8.640625 -2.078125 8.984375 -2.640625 C 9.328125 -3.210938 9.5 -3.875 9.5 -4.625 C 9.5 -5.332031 9.335938 -5.972656 9.015625 -6.546875 C 8.691406 -7.117188 8.25 -7.570312 7.6875 -7.90625 C 7.125 -8.238281 6.5 -8.40625 5.8125 -8.40625 C 5.125 -8.40625 4.492188 -8.234375 3.921875 -7.890625 C 3.359375 -7.546875 2.914062 -7.085938 2.59375 -6.515625 C 2.28125 -5.941406 2.125 -5.320312 2.125 -4.65625 C 2.125 -3.988281 2.285156 -3.363281 2.609375 -2.78125 C 2.929688 -2.207031 3.375 -1.742188 3.9375 -1.390625 C 4.5 -1.035156 5.117188 -0.859375 5.796875 -0.859375 Z M 5.796875 -0.859375 "/></g></g></g><g fill="#545454" fill-opacity="1"><g transform="translate(87.038692, 113.379463)"><g><path d="M 5.671875 0.234375 C 4.785156 0.234375 3.976562 0.0078125 3.25 -0.4375 C 2.519531 -0.882812 1.941406 -1.484375 1.515625 -2.234375 C 1.097656 -2.992188 0.890625 -3.8125 0.890625 -4.6875 C 0.890625 -5.5625 1.101562 -6.367188 1.53125 -7.109375 C 1.957031 -7.859375 2.539062 -8.457031 3.28125 -8.90625 C 4.019531 -9.351562 4.828125 -9.578125 5.703125 -9.578125 C 6.460938 -9.578125 7.160156 -9.410156 7.796875 -9.078125 C 8.429688 -8.753906 8.976562 -8.269531 9.4375 -7.625 L 9.4375 -9.328125 L 10.609375 -9.328125 L 10.609375 0 L 9.4375 0 L 9.4375 -1.59375 C 8.925781 -0.988281 8.351562 -0.53125 7.71875 -0.21875 C 7.09375 0.0820312 6.410156 0.234375 5.671875 0.234375 Z M 5.796875 -0.859375 C 6.441406 -0.859375 7.050781 -1.015625 7.625 -1.328125 C 8.195312 -1.640625 8.65625 -2.078125 9 -2.640625 C 9.34375 -3.210938 9.515625 -3.875 9.515625 -4.625 C 9.515625 -5.332031 9.347656 -5.972656 9.015625 -6.546875 C 8.691406 -7.117188 8.25 -7.570312 7.6875 -7.90625 C 7.125 -8.238281 6.5 -8.40625 5.8125 -8.40625 C 5.125 -8.40625 4.492188 -8.234375 3.921875 -7.890625 C 3.359375 -7.546875 2.914062 -7.085938 2.59375 -6.515625 C 2.28125 -5.941406 2.125 -5.320312 2.125 -4.65625 C 2.125 -3.988281 2.285156 -3.363281 2.609375 -2.78125 C 2.929688 -2.207031 3.375 -1.742188 3.9375 -1.390625 C 4.5 -1.035156 5.117188 -0.859375 5.796875 -0.859375 Z M 5.796875 -0.859375 "/></g></g></g><g fill="#545454" fill-opacity="1"><g transform="translate(99.044868, 113.379463)"><g><path d="M 2.40625 -8.265625 L 0.75 -8.265625 L 0.75 -9.328125 L 2.40625 -9.328125 L 2.40625 -12.796875 L 3.59375 -12.796875 L 3.59375 -9.328125 L 5.515625 -9.328125 L 5.515625 -8.265625 L 3.59375 -8.265625 L 3.59375 0 L 2.40625 0 Z M 2.40625 -8.265625 "/></g></g></g><g fill="#545454" fill-opacity="1"><g transform="translate(104.995301, 113.379463)"><g><path d="M 5.671875 0.234375 C 4.785156 0.234375 3.976562 0.0078125 3.25 -0.4375 C 2.519531 -0.882812 1.941406 -1.484375 1.515625 -2.234375 C 1.097656 -2.992188 0.890625 -3.8125 0.890625 -4.6875 C 0.890625 -5.5625 1.101562 -6.367188 1.53125 -7.109375 C 1.957031 -7.859375 2.539062 -8.457031 3.28125 -8.90625 C 4.019531 -9.351562 4.828125 -9.578125 5.703125 -9.578125 C 6.460938 -9.578125 7.160156 -9.410156 7.796875 -9.078125 C 8.429688 -8.753906 8.976562 -8.269531 9.4375 -7.625 L 9.4375 -9.328125 L 10.609375 -9.328125 L 10.609375 0 L 9.4375 0 L 9.4375 -1.59375 C 8.925781 -0.988281 8.351562 -0.53125 7.71875 -0.21875 C 7.09375 0.0820312 6.410156 0.234375 5.671875 0.234375 Z M 5.796875 -0.859375 C 6.441406 -0.859375 7.050781 -1.015625 7.625 -1.328125 C 8.195312 -1.640625 8.65625 -2.078125 9 -2.640625 C 9.34375 -3.210938 9.515625 -3.875 9.515625 -4.625 C 9.515625 -5.332031 9.347656 -5.972656 9.015625 -6.546875 C 8.691406 -7.117188 8.25 -7.570312 7.6875 -7.90625 C 7.125 -8.238281 6.5 -8.40625 5.8125 -8.40625 C 5.125 -8.40625 4.492188 -8.234375 3.921875 -7.890625 C 3.359375 -7.546875 2.914062 -7.085938 2.59375 -6.515625 C 2.28125 -5.941406 2.125 -5.320312 2.125 -4.65625 C 2.125 -3.988281 2.285156 -3.363281 2.609375 -2.78125 C 2.929688 -2.207031 3.375 -1.742188 3.9375 -1.390625 C 4.5 -1.035156 5.117188 -0.859375 5.796875 -0.859375 Z M 5.796875 -0.859375 "/></g></g></g><g fill="#545454" fill-opacity="1"><g transform="translate(121.863629, 113.379463)"><g><path d="M 5.828125 0.25 C 4.878906 0.25 4.03125 0.0351562 3.28125 -0.390625 C 2.53125 -0.828125 1.941406 -1.421875 1.515625 -2.171875 C 1.097656 -2.921875 0.890625 -3.753906 0.890625 -4.671875 C 0.890625 -5.597656 1.101562 -6.429688 1.53125 -7.171875 C 1.957031 -7.921875 2.550781 -8.507812 3.3125 -8.9375 C 4.070312 -9.363281 4.921875 -9.578125 5.859375 -9.578125 C 6.753906 -9.578125 7.566406 -9.394531 8.296875 -9.03125 C 9.023438 -8.675781 9.613281 -8.179688 10.0625 -7.546875 L 9.1875 -6.796875 C 8.738281 -7.335938 8.242188 -7.738281 7.703125 -8 C 7.160156 -8.269531 6.53125 -8.40625 5.8125 -8.40625 C 5.113281 -8.40625 4.484375 -8.238281 3.921875 -7.90625 C 3.367188 -7.582031 2.929688 -7.132812 2.609375 -6.5625 C 2.285156 -6 2.125 -5.367188 2.125 -4.671875 C 2.125 -3.941406 2.28125 -3.289062 2.59375 -2.71875 C 2.914062 -2.144531 3.359375 -1.695312 3.921875 -1.375 C 4.492188 -1.0625 5.128906 -0.90625 5.828125 -0.90625 C 7.191406 -0.90625 8.3125 -1.4375 9.1875 -2.5 L 10.078125 -1.796875 C 9.578125 -1.148438 8.96875 -0.644531 8.25 -0.28125 C 7.53125 0.0703125 6.722656 0.25 5.828125 0.25 Z M 5.828125 0.25 "/></g></g></g><g fill="#545454" fill-opacity="1"><g transform="translate(132.711318, 113.379463)"><g><path d="M 5.765625 0.25 C 4.847656 0.25 4.015625 0.03125 3.265625 -0.40625 C 2.523438 -0.851562 1.941406 -1.445312 1.515625 -2.1875 C 1.097656 -2.9375 0.890625 -3.753906 0.890625 -4.640625 C 0.890625 -5.515625 1.097656 -6.332031 1.515625 -7.09375 C 1.941406 -7.851562 2.523438 -8.457031 3.265625 -8.90625 C 4.015625 -9.351562 4.847656 -9.578125 5.765625 -9.578125 C 6.671875 -9.578125 7.492188 -9.351562 8.234375 -8.90625 C 8.984375 -8.457031 9.566406 -7.851562 9.984375 -7.09375 C 10.410156 -6.332031 10.625 -5.515625 10.625 -4.640625 C 10.625 -3.753906 10.410156 -2.9375 9.984375 -2.1875 C 9.566406 -1.445312 8.984375 -0.851562 8.234375 -0.40625 C 7.492188 0.03125 6.671875 0.25 5.765625 0.25 Z M 5.765625 -0.90625 C 6.441406 -0.90625 7.054688 -1.070312 7.609375 -1.40625 C 8.171875 -1.75 8.609375 -2.203125 8.921875 -2.765625 C 9.234375 -3.335938 9.390625 -3.957031 9.390625 -4.625 C 9.390625 -5.300781 9.222656 -5.925781 8.890625 -6.5 C 8.566406 -7.082031 8.128906 -7.546875 7.578125 -7.890625 C 7.023438 -8.234375 6.421875 -8.40625 5.765625 -8.40625 C 5.109375 -8.40625 4.5 -8.234375 3.9375 -7.890625 C 3.382812 -7.546875 2.941406 -7.082031 2.609375 -6.5 C 2.285156 -5.925781 2.125 -5.300781 2.125 -4.625 C 2.125 -3.9375 2.28125 -3.3125 2.59375 -2.75 C 2.914062 -2.195312 3.347656 -1.75 3.890625 -1.40625 C 4.441406 -1.070312 5.066406 -0.90625 5.765625 -0.90625 Z M 5.765625 -0.90625 "/></g></g></g><g fill="#545454" fill-opacity="1"><g transform="translate(144.208456, 113.379463)"><g><path d="M 2.59375 -9.328125 L 2.59375 -7.65625 C 3.570312 -8.9375 4.738281 -9.578125 6.09375 -9.578125 C 6.78125 -9.578125 7.382812 -9.414062 7.90625 -9.09375 C 8.425781 -8.769531 8.828125 -8.28125 9.109375 -7.625 C 9.398438 -6.976562 9.546875 -6.179688 9.546875 -5.234375 L 9.546875 0 L 8.359375 0 L 8.359375 -5.078125 C 8.359375 -6.210938 8.160156 -7.0625 7.765625 -7.625 C 7.378906 -8.195312 6.742188 -8.484375 5.859375 -8.484375 C 5.285156 -8.484375 4.75 -8.320312 4.25 -8 C 3.757812 -7.6875 3.359375 -7.226562 3.046875 -6.625 C 2.742188 -6.019531 2.59375 -5.304688 2.59375 -4.484375 L 2.59375 0 L 1.40625 0 L 1.40625 -9.328125 Z M 2.59375 -9.328125 "/></g></g></g><g fill="#545454" fill-opacity="1"><g transform="translate(154.985926, 113.379463)"><g><path d="M 3.359375 0.25 C 2.828125 0.25 2.316406 0.132812 1.828125 -0.09375 C 1.335938 -0.332031 0.925781 -0.664062 0.59375 -1.09375 L 1.359375 -1.953125 C 1.972656 -1.253906 2.617188 -0.90625 3.296875 -0.90625 C 3.609375 -0.90625 3.894531 -0.972656 4.15625 -1.109375 C 4.414062 -1.242188 4.625 -1.429688 4.78125 -1.671875 C 4.9375 -1.910156 5.015625 -2.171875 5.015625 -2.453125 C 5.015625 -2.773438 4.9375 -3.046875 4.78125 -3.265625 C 4.625 -3.484375 4.367188 -3.6875 4.015625 -3.875 C 3.285156 -4.28125 2.722656 -4.609375 2.328125 -4.859375 C 1.941406 -5.117188 1.625 -5.429688 1.375 -5.796875 C 1.132812 -6.160156 1.015625 -6.59375 1.015625 -7.09375 C 1.015625 -7.570312 1.128906 -8 1.359375 -8.375 C 1.585938 -8.75 1.894531 -9.039062 2.28125 -9.25 C 2.675781 -9.46875 3.109375 -9.578125 3.578125 -9.578125 C 4.054688 -9.578125 4.5 -9.46875 4.90625 -9.25 C 5.320312 -9.039062 5.742188 -8.726562 6.171875 -8.3125 L 5.390625 -7.515625 C 5.085938 -7.804688 4.785156 -8.023438 4.484375 -8.171875 C 4.191406 -8.328125 3.867188 -8.40625 3.515625 -8.40625 C 3.253906 -8.40625 3.019531 -8.347656 2.8125 -8.234375 C 2.601562 -8.128906 2.429688 -7.984375 2.296875 -7.796875 C 2.171875 -7.609375 2.109375 -7.398438 2.109375 -7.171875 C 2.109375 -6.847656 2.203125 -6.566406 2.390625 -6.328125 C 2.578125 -6.097656 2.863281 -5.878906 3.25 -5.671875 C 4 -5.265625 4.5625 -4.925781 4.9375 -4.65625 C 5.320312 -4.394531 5.625 -4.09375 5.84375 -3.75 C 6.0625 -3.414062 6.171875 -3.003906 6.171875 -2.515625 C 6.171875 -2.023438 6.050781 -1.566406 5.8125 -1.140625 C 5.582031 -0.722656 5.253906 -0.382812 4.828125 -0.125 C 4.398438 0.125 3.910156 0.25 3.359375 0.25 Z M 3.359375 0.25 "/></g></g></g><g fill="#545454" fill-opacity="1"><g transform="translate(161.796441, 113.379463)"><g><path d="M 5.28125 0.234375 C 3.9375 0.234375 2.914062 -0.160156 2.21875 -0.953125 C 1.519531 -1.753906 1.171875 -2.9375 1.171875 -4.5 L 1.171875 -9.328125 L 2.4375 -9.328125 L 2.4375 -4 C 2.4375 -2.976562 2.6875 -2.210938 3.1875 -1.703125 C 3.695312 -1.191406 4.394531 -0.9375 5.28125 -0.9375 C 5.90625 -0.9375 6.425781 -1.0625 6.84375 -1.3125 C 7.269531 -1.5625 7.585938 -1.910156 7.796875 -2.359375 C 8.003906 -2.804688 8.109375 -3.328125 8.109375 -3.921875 L 8.109375 -9.328125 L 9.375 -9.328125 L 9.375 -4.5 C 9.375 -2.925781 9.03125 -1.742188 8.34375 -0.953125 C 7.65625 -0.160156 6.632812 0.234375 5.28125 0.234375 Z M 5.28125 0.234375 "/></g></g></g><g fill="#545454" fill-opacity="1"><g transform="translate(172.468601, 113.379463)"><g><path d="M 2.359375 -12.921875 L 2.359375 0 L 1.15625 0 L 1.15625 -12.921875 Z M 2.359375 -12.921875 "/></g></g></g><g fill="#545454" fill-opacity="1"><g transform="translate(175.97918, 113.379463)"><g><path d="M 2.40625 -8.265625 L 0.75 -8.265625 L 0.75 -9.328125 L 2.40625 -9.328125 L 2.40625 -12.796875 L 3.59375 -12.796875 L 3.59375 -9.328125 L 5.515625 -9.328125 L 5.515625 -8.265625 L 3.59375 -8.265625 L 3.59375 0 L 2.40625 0 Z M 2.40625 -8.265625 "/></g></g></g><g fill="#545454" fill-opacity="1"><g transform="translate(181.929613, 113.379463)"><g><path d="M 5.671875 0.234375 C 4.785156 0.234375 3.976562 0.0078125 3.25 -0.4375 C 2.519531 -0.882812 1.941406 -1.484375 1.515625 -2.234375 C 1.097656 -2.992188 0.890625 -3.8125 0.890625 -4.6875 C 0.890625 -5.5625 1.101562 -6.367188 1.53125 -7.109375 C 1.957031 -7.859375 2.539062 -8.457031 3.28125 -8.90625 C 4.019531 -9.351562 4.828125 -9.578125 5.703125 -9.578125 C 6.460938 -9.578125 7.160156 -9.410156 7.796875 -9.078125 C 8.429688 -8.753906 8.976562 -8.269531 9.4375 -7.625 L 9.4375 -9.328125 L 10.609375 -9.328125 L 10.609375 0 L 9.4375 0 L 9.4375 -1.59375 C 8.925781 -0.988281 8.351562 -0.53125 7.71875 -0.21875 C 7.09375 0.0820312 6.410156 0.234375 5.671875 0.234375 Z M 5.796875 -0.859375 C 6.441406 -0.859375 7.050781 -1.015625 7.625 -1.328125 C 8.195312 -1.640625 8.65625 -2.078125 9 -2.640625 C 9.34375 -3.210938 9.515625 -3.875 9.515625 -4.625 C 9.515625 -5.332031 9.347656 -5.972656 9.015625 -6.546875 C 8.691406 -7.117188 8.25 -7.570312 7.6875 -7.90625 C 7.125 -8.238281 6.5 -8.40625 5.8125 -8.40625 C 5.125 -8.40625 4.492188 -8.234375 3.921875 -7.890625 C 3.359375 -7.546875 2.914062 -7.085938 2.59375 -6.515625 C 2.28125 -5.941406 2.125 -5.320312 2.125 -4.65625 C 2.125 -3.988281 2.285156 -3.363281 2.609375 -2.78125 C 2.929688 -2.207031 3.375 -1.742188 3.9375 -1.390625 C 4.5 -1.035156 5.117188 -0.859375 5.796875 -0.859375 Z M 5.796875 -0.859375 "/></g></g></g><g fill="#545454" fill-opacity="1"><g transform="translate(193.935789, 113.379463)"><g><path d="M 2.59375 -9.328125 L 2.59375 -7.65625 C 3.570312 -8.9375 4.738281 -9.578125 6.09375 -9.578125 C 6.78125 -9.578125 7.382812 -9.414062 7.90625 -9.09375 C 8.425781 -8.769531 8.828125 -8.28125 9.109375 -7.625 C 9.398438 -6.976562 9.546875 -6.179688 9.546875 -5.234375 L 9.546875 0 L 8.359375 0 L 8.359375 -5.078125 C 8.359375 -6.210938 8.160156 -7.0625 7.765625 -7.625 C 7.378906 -8.195312 6.742188 -8.484375 5.859375 -8.484375 C 5.285156 -8.484375 4.75 -8.320312 4.25 -8 C 3.757812 -7.6875 3.359375 -7.226562 3.046875 -6.625 C 2.742188 -6.019531 2.59375 -5.304688 2.59375 -4.484375 L 2.59375 0 L 1.40625 0 L 1.40625 -9.328125 Z M 2.59375 -9.328125 "/></g></g></g><g fill="#545454" fill-opacity="1"><g transform="translate(204.713259, 113.379463)"><g><path d="M 5.828125 0.25 C 4.878906 0.25 4.03125 0.0351562 3.28125 -0.390625 C 2.53125 -0.828125 1.941406 -1.421875 1.515625 -2.171875 C 1.097656 -2.921875 0.890625 -3.753906 0.890625 -4.671875 C 0.890625 -5.597656 1.101562 -6.429688 1.53125 -7.171875 C 1.957031 -7.921875 2.550781 -8.507812 3.3125 -8.9375 C 4.070312 -9.363281 4.921875 -9.578125 5.859375 -9.578125 C 6.753906 -9.578125 7.566406 -9.394531 8.296875 -9.03125 C 9.023438 -8.675781 9.613281 -8.179688 10.0625 -7.546875 L 9.1875 -6.796875 C 8.738281 -7.335938 8.242188 -7.738281 7.703125 -8 C 7.160156 -8.269531 6.53125 -8.40625 5.8125 -8.40625 C 5.113281 -8.40625 4.484375 -8.238281 3.921875 -7.90625 C 3.367188 -7.582031 2.929688 -7.132812 2.609375 -6.5625 C 2.285156 -6 2.125 -5.367188 2.125 -4.671875 C 2.125 -3.941406 2.28125 -3.289062 2.59375 -2.71875 C 2.914062 -2.144531 3.359375 -1.695312 3.921875 -1.375 C 4.492188 -1.0625 5.128906 -0.90625 5.828125 -0.90625 C 7.191406 -0.90625 8.3125 -1.4375 9.1875 -2.5 L 10.078125 -1.796875 C 9.578125 -1.148438 8.96875 -0.644531 8.25 -0.28125 C 7.53125 0.0703125 6.722656 0.25 5.828125 0.25 Z M 5.828125 0.25 "/></g></g></g><g fill="#545454" fill-opacity="1"><g transform="translate(215.560947, 113.379463)"><g><path d="M 7.953125 -9.328125 L 9.203125 -9.328125 L 3.640625 3.40625 L 2.375 3.40625 L 4.1875 -0.625 L 0.328125 -9.328125 L 1.5625 -9.328125 L 4.796875 -2 Z M 7.953125 -9.328125 "/></g></g></g></svg>